# xmcd CD database file
#
# Track frame offsets:
#	150
#	35180
#	62700
#	101031
#	150172
#	169229
#	200835
#	230183
#	260490
#	279583
#	301232
#
# Disc length: 4347 seconds
#
# Revision: 1
# Processed by: cddbd v1.5.2PL0 Copyright (c) Steve Scherf et al.
# Submitted via: CDex 1.51
#
DISCID=9f10f90b
DTITLE=Luigi Boccherini - Trois quintettes avec guitare  (Tatrai Quartet - Laszlo Szendrey-Karper, guitare)
DYEAR=1900
DGENRE=Classique
TTITLE0=Quintette avec guitare N°4 en ré majeur - I. Allegro maestoso
TTITLE1=Quintette avec guitare N°4 en ré majeur - II. Pastorale
TTITLE2=Quintette avec guitare N°4 en ré majeur - III. Grave assai - Fandango
TTITLE3=Quintette avec guitare N°9 en ut majeur - I. Allegro maestoso assai
TTITLE4=Quintette avec guitare N°9 en ut majeur - II. Andantino
TTITLE5=Quintette avec guitare N°9 en ut majeur - III. Allegretto
TTITLE6=Quintette avec guitare N°9 en ut majeur - 12 Variazioni 
TTITLE7=Quintette avec guitare N°7 en mi mineur - I. Allegro moderato
TTITLE8=Quintette avec guitare N°7 en mi mineur - II. Adagio
TTITLE9=Quintette avec guitare N°7 en mi mineur - III. Minuetto
TTITLE10=Quintette avec guitare N°7 en mi mineur - IV. Allegretto
EXTD=
EXTT0=
EXTT1=
EXTT2=
EXTT3=
EXTT4=
EXTT5=
EXTT6=
EXTT7=
EXTT8=
EXTT9=
EXTT10=
PLAYORDER=
